<svg width="35" height="33" viewBox="0 0 35 33" fill="none" xmlns="http://www.w3.org/2000/svg">
<path id="Vector" d="M17.0833 32.5254C7.64821 32.5254 0 25.2446 0 16.2627C0 7.28081 7.64821 0 17.0833 0C26.5185 0 34.1667 7.28081 34.1667 16.2627C34.1564 25.2397 26.5133 32.5156 17.0833 32.5254ZM9.78363 20.7951C9.56325 20.7951 9.34458 20.8211 9.12933 20.8699L8.87308 20.9366L7.85833 22.5905C7.67298 22.8848 7.61346 23.2357 7.69207 23.5706C7.77069 23.9055 7.98143 24.1989 8.28076 24.3901C8.58009 24.5813 8.94514 24.6558 9.30049 24.5981C9.65584 24.5404 9.97435 24.355 10.1902 24.0802L10.2961 23.9289L11.6457 21.6993C11.427 21.4208 11.1435 21.1943 10.8175 21.0374C10.4915 20.8806 10.1318 20.7976 9.76654 20.7951H9.78363ZM19.1521 10.831C18.6206 11.3063 18.2682 11.9349 18.1493 12.6199C17.9589 13.5643 18.1414 14.5424 18.6618 15.3666L23.8552 23.9306C24.0359 24.2201 24.3241 24.4345 24.6629 24.5314C25.0017 24.6284 25.3663 24.6008 25.6848 24.4542C26.0023 24.3051 26.2491 24.0475 26.3758 23.7327C26.5025 23.418 26.4997 23.0693 26.3681 22.7564L26.2844 22.5938L24.9178 20.3316H26.9507C27.3067 20.3288 27.6483 20.1975 27.9066 19.9642C28.1649 19.7309 28.3206 19.4131 28.3422 19.0748C28.3639 18.7365 28.25 18.4029 28.0234 18.1415C27.7968 17.8801 27.4745 17.7102 27.1215 17.6662L26.9507 17.6564H23.2948L19.5468 11.4766L19.1555 10.8261L19.1521 10.831ZM7.2775 17.645C7.09392 17.6455 6.91224 17.6804 6.74285 17.7477C6.57347 17.8151 6.4197 17.9136 6.29037 18.0376C6.16104 18.1617 6.05868 18.3088 5.98916 18.4705C5.91963 18.6322 5.88431 18.8054 5.88521 18.9802C5.88521 19.6535 6.41138 20.2227 7.1135 20.3089L7.28433 20.317H20.0627C20.2041 20.0467 20.2752 19.748 20.2702 19.446C20.2651 19.1441 20.184 18.8477 20.0336 18.5818C19.9057 18.3327 19.7151 18.1175 19.4788 17.9555C19.2424 17.7935 18.9676 17.6896 18.6789 17.6532L18.4722 17.6434H14.1143L20.1413 7.70852C20.3269 7.40055 20.3772 7.03524 20.2813 6.6921C20.2131 6.4513 20.0756 6.2334 19.8844 6.06293C19.6932 5.89246 19.4557 5.77617 19.1989 5.72716C18.942 5.67815 18.6758 5.69836 18.4303 5.78552C18.1849 5.87267 17.9698 6.02331 17.8094 6.22048L17.7035 6.3701L17.0833 7.40115L16.47 6.3701C16.2893 6.0802 16.0007 5.8655 15.6616 5.76851C15.3224 5.67153 14.9574 5.69934 14.6387 5.84644C14.3213 5.99614 14.0748 6.25412 13.9481 6.56903C13.8215 6.88395 13.8241 7.23271 13.9554 7.54589L14.0391 7.70852L15.457 10.0829L10.8701 17.645H7.2775Z" fill="#322D29"/>
</svg>
